HIERARCHY
ROOT Hips
{
	OFFSET -0.001795 -0.223333 0.028219
	CHANNELS 6 Xposition Yposition Zposition Zrotation Yrotation Xrotation 
	JOINT LeftUpLeg
	{
		OFFSET 0.069520 -0.091406 -0.006815
		CHANNELS 3 Zrotation Yrotation Xrotation
		JOINT LeftLeg
		{
			OFFSET 0.034277 -0.375199 -0.004496
			CHANNELS 3 Zrotation Yrotation Xrotation
			JOINT LeftFoot
			{
				OFFSET -0.013596 -0.397961 -0.043693
				CHANNELS 3 Zrotation Yrotation Xrotation
				JOINT LeftToe
				{
					OFFSET 0.026358 -0.055791 0.119288
					CHANNELS 3 Zrotation Yrotation Xrotation
					End Site
					{
						OFFSET 0.000000 0.000000 0.000000
					}
				}
			}
		}
	}
	JOINT RightUpLeg
	{
		OFFSET -0.067670 -0.090522 -0.004320
		CHANNELS 3 Zrotation Yrotation Xrotation
		JOINT RightLeg
		{
			OFFSET -0.038290 -0.382569 -0.008850
			CHANNELS 3 Zrotation Yrotation Xrotation
			JOINT RightFoot
			{
				OFFSET 0.015774 -0.398415 -0.042312
				CHANNELS 3 Zrotation Yrotation Xrotation
				JOINT RightToe
				{
					OFFSET -0.025372 -0.048144 0.123348
					CHANNELS 3 Zrotation Yrotation Xrotation
					End Site
					{
						OFFSET 0.000000 0.000000 0.000000
					}
				}
			}
		}
	}
	JOINT Spine
	{
		OFFSET -0.002533 0.108963 -0.026696
		CHANNELS 3 Zrotation Yrotation Xrotation
		JOINT Spine1
		{
			OFFSET 0.005487 0.135180 0.001092
			CHANNELS 3 Zrotation Yrotation Xrotation
			JOINT Spine2
			{
				OFFSET 0.001457 0.052922 0.025425
				CHANNELS 3 Zrotation Yrotation Xrotation
				JOINT Neck
				{
					OFFSET -0.002778 0.213870 -0.042857
					CHANNELS 3 Zrotation Yrotation Xrotation
					JOINT Head
					{
						OFFSET 0.005152 0.064970 0.051349
						CHANNELS 3 Zrotation Yrotation Xrotation
						End Site
						{
							OFFSET 0.000000 0.000000 0.000000
						}
					}
				}
				JOINT LeftShoulder
				{
					OFFSET 0.078845 0.121749 -0.034090
					CHANNELS 3 Zrotation Yrotation Xrotation
					JOINT LeftArm
					{
						OFFSET 0.090977 0.030469 -0.008868
						CHANNELS 3 Zrotation Yrotation Xrotation
						JOINT LeftForeArm
						{
							OFFSET 0.259612 -0.012772 -0.027456
							CHANNELS 3 Zrotation Yrotation Xrotation
							JOINT LeftHand
							{
								OFFSET 0.249234 0.008986 -0.001171
								CHANNELS 3 Zrotation Yrotation Xrotation
								End Site
								{
									OFFSET 0.000000 0.000000 0.000000
								}
							}
						}
					}
				}
				JOINT RightShoulder
				{
					OFFSET -0.081759 0.118833 -0.038615
					CHANNELS 3 Zrotation Yrotation Xrotation
					JOINT RightArm
					{
						OFFSET -0.096012 0.032551 -0.009143
						CHANNELS 3 Zrotation Yrotation Xrotation
						JOINT RightForeArm
						{
							OFFSET -0.253742 -0.013329 -0.021401
							CHANNELS 3 Zrotation Yrotation Xrotation
							JOINT RightHand
							{
								OFFSET -0.255298 0.007772 -0.005559
								CHANNELS 3 Zrotation Yrotation Xrotation
								End Site
								{
									OFFSET 0.000000 0.000000 0.000000
								}
							}
						}
					}
				}
			}
		}
	}
}
MOTION
Frames: 8
Frame Time: 0.050000
0.000000 0.880449 0.000000 -2.889548 -20.615403 3.089552 19.111390 4.021925 -23.005912 -5.312986 3.031833 27.193003 3.734921 7.847611 2.885343 0.000000 0.000000 0.000000 -16.796675 1.223615 -15.329132 -7.802803 7.578826 35.929788 6.247480 14.560073 2.070801 0.000000 0.000000 0.000000 4.762430 -0.651631 8.378249 -1.099610 0.274067 -18.934381 -4.646127 8.878682 22.483817 12.403387 -6.564082 -22.180680 0.000000 0.000000 0.000000 1.651672 -16.801604 5.707735 -28.272913 -38.821132 3.957919 93.497774 -63.668031 -59.614329 0.000000 0.000000 0.000000 16.095567 -9.106378 -6.507858 50.474858 -8.217917 -9.844135 129.830864 54.750193 98.725342 0.000000 0.000000 0.000000 
-0.049913 0.880750 -0.036056 -3.276425 -10.942899 5.533181 21.495539 4.318417 -29.489158 -3.437632 1.103431 24.084288 -0.383571 0.842259 4.945516 0.000000 0.000000 0.000000 -14.691400 0.779489 -12.361683 -8.346687 6.287809 34.318705 7.398348 24.107996 -3.161817 0.000000 0.000000 0.000000 3.797575 -0.588298 7.133040 -1.778970 0.767904 -20.919181 -2.189159 8.087435 22.388056 12.880701 -5.981534 -22.835544 0.000000 0.000000 0.000000 -1.995973 -14.600832 5.205994 -31.406049 -43.652395 5.570595 98.716434 -72.472419 -75.291098 0.000000 0.000000 0.000000 12.708358 -13.859405 -7.377667 53.951555 -11.607221 -11.765541 132.105856 52.760389 103.116818 0.000000 0.000000 0.000000 
-0.099705 0.887624 -0.074923 -3.418378 0.180855 5.245959 20.616515 2.330601 -30.584020 0.462201 -0.727281 17.770017 -1.128942 0.403560 5.996204 0.000000 0.000000 0.000000 -8.115264 0.519853 -7.914125 -8.021659 4.315653 30.345824 -0.006614 9.227763 -12.675291 0.000000 0.000000 0.000000 6.567253 -0.855462 6.864021 0.218634 0.466258 -20.762114 -6.775860 7.050918 24.021845 13.895814 -5.041635 -26.679555 0.000000 0.000000 0.000000 -2.271064 -14.980051 4.964144 -33.525821 -41.811470 5.002453 93.360838 -73.654514 -74.118433 0.000000 0.000000 0.000000 14.355125 -13.770052 -6.738340 53.251024 -5.843714 -9.198207 131.674435 59.787927 116.107726 0.000000 0.000000 0.000000 
-0.142463 0.895631 -0.112124 -2.739593 4.836102 5.697417 21.047593 1.682200 -30.730828 -4.330591 0.377317 16.212997 4.718553 11.756543 6.736910 0.000000 0.000000 0.000000 -7.134512 0.498985 -8.736991 -5.167889 2.755463 30.913761 -1.764920 2.788477 -14.624589 0.000000 0.000000 0.000000 7.526829 -1.062156 7.497800 -0.170753 0.682002 -21.838495 -7.344397 8.858646 24.683352 14.513573 -4.333287 -28.242119 0.000000 0.000000 0.000000 -2.023508 -12.600702 3.843335 -34.744224 -41.236330 4.730166 113.580272 -78.387242 -101.963571 0.000000 0.000000 0.000000 11.171012 -14.053537 -6.044154 54.043972 -1.820673 -7.118534 141.878720 65.248664 139.870129 0.000000 0.000000 0.000000 
-0.177320 0.907085 -0.144049 -2.816788 10.063378 5.213381 19.242166 0.479649 -28.946149 -8.178785 1.059839 19.304794 10.526094 21.863386 4.054279 0.000000 0.000000 0.000000 -5.187543 0.505448 -8.506796 -1.189577 0.606662 27.454547 -3.643466 -5.824845 -16.541218 0.000000 0.000000 0.000000 7.930639 -1.039858 6.710670 -1.760471 1.188650 -20.863747 -5.457022 8.387531 25.554635 13.117794 -3.028409 -28.853326 0.000000 0.000000 0.000000 -3.214494 -12.648501 3.561096 -34.143509 -39.429930 3.976654 129.844777 -80.767333 -123.377225 0.000000 0.000000 0.000000 9.659983 -13.424918 -5.423497 55.048736 2.688831 -5.032184 141.768694 71.024085 146.807456 0.000000 0.000000 0.000000 
-0.203729 0.918887 -0.170682 -2.323890 14.658433 5.963915 17.028250 -0.467208 -27.127982 -12.605139 1.860972 22.098555 14.813708 29.031086 4.330674 0.000000 0.000000 0.000000 -4.721840 0.474509 -8.556034 1.507632 -0.719989 24.676394 -3.605758 -7.926250 -13.989546 0.000000 0.000000 0.000000 7.551683 -0.905743 5.521400 -2.100021 1.356443 -21.119275 -4.418518 9.814252 26.742552 11.677764 -1.301317 -30.160509 0.000000 0.000000 0.000000 -1.612342 -10.121672 2.647203 -37.057644 -39.100455 3.880013 156.992248 -78.451871 -155.466511 0.000000 0.000000 0.000000 9.296978 -13.830065 -5.310884 55.191351 5.911002 -3.294125 149.589229 76.297974 163.305939 0.000000 0.000000 0.000000 
-0.223235 0.929299 -0.194720 -1.891840 20.022508 5.756136 14.046490 -1.241720 -24.379637 -15.380031 2.022207 25.098991 16.992892 32.032734 5.052980 0.000000 0.000000 0.000000 -4.355884 0.364502 -7.363218 3.591619 -1.544516 20.055807 -4.195937 -11.775911 -11.207643 0.000000 0.000000 0.000000 7.794486 -0.764467 3.976671 -2.947288 1.671870 -21.001115 -3.295048 9.385108 27.478385 10.895530 -0.633365 -28.849451 0.000000 0.000000 0.000000 -2.396521 -8.654868 1.803592 -39.102088 -36.806336 3.425237 173.436853 -74.885485 -176.737307 0.000000 0.000000 0.000000 9.705045 -12.888064 -4.554657 54.937942 8.630097 -2.127611 164.453577 81.853984 -174.964634 0.000000 0.000000 0.000000 
-0.237017 0.936799 -0.217784 -1.736575 25.542556 5.833566 12.848793 -1.533784 -21.285103 -17.825782 1.906230 26.313455 18.946344 33.850294 8.558915 0.000000 0.000000 0.000000 -3.405869 0.368498 -7.460420 3.880000 -1.783265 17.637458 -4.100566 -12.013285 -7.605691 0.000000 0.000000 0.000000 7.858132 -0.908762 4.841510 -3.446260 1.763421 -23.504252 -1.757251 10.204369 28.093825 9.904651 0.703708 -29.314816 0.000000 0.000000 0.000000 -2.301896 -7.430437 1.090777 -41.894687 -33.547713 2.494236 -177.295808 -69.670445 167.918927 0.000000 0.000000 0.000000 10.184790 -13.760099 -4.662669 52.785642 10.868722 -1.045797 -165.048553 84.375277 -139.188261 0.000000 0.000000 0.000000 
